<svg width="90" height="34" viewBox="0 0 90 34" fill="none" xmlns="http://www.w3.org/2000/svg">
<rect width="34" height="34" fill="#515070"/>
<path d="M18.3924 24.4863V21.5381C18.3924 21.1381 18.7166 20.8141 19.1164 20.8141C20.5429 20.8141 21.319 19.3511 21.4267 16.4631H19.1164C18.7167 16.4631 18.3924 16.1386 18.3924 15.739V9.51383C18.3924 9.11396 18.7166 8.78996 19.1164 8.78996H25.2759C25.6756 8.78996 26 9.11432 26 9.51383V15.7391C26 17.1234 25.8603 18.3937 25.5859 19.5157C25.3041 20.6658 24.8715 21.6713 24.3003 22.5045C23.713 23.3608 22.9776 24.0327 22.116 24.5007C21.2478 24.9716 20.2386 25.2106 19.1161 25.2106C18.7167 25.2103 18.3924 24.886 18.3924 24.4863ZM9.05468 20.8139C8.65496 20.8139 8.33081 21.1381 8.33081 21.5376V24.4864C8.33081 24.886 8.65496 25.2101 9.05468 25.2101C10.1767 25.2101 11.1864 24.971 12.054 24.5001C12.9161 24.0322 13.6513 23.3609 14.2386 22.504C14.8101 21.6707 15.2427 20.6652 15.5245 19.5145C15.799 18.3926 15.9385 17.1222 15.9385 15.7385V9.51323C15.9385 9.11335 15.614 8.78936 15.2144 8.78936H9.05468C8.65496 8.78936 8.33081 9.11366 8.33081 9.51323V15.7385C8.33081 16.1383 8.65496 16.4625 9.05468 16.4625H11.3325C11.2261 19.3508 10.4613 20.8139 9.05468 20.8139Z" fill="white"/>
<path d="M47.08 5.34V12.55C47.08 12.802 47.136 12.984 47.248 13.096C47.3693 13.208 47.5653 13.264 47.836 13.264H51.154L51.252 14.888C50.3093 14.9907 48.9467 15.042 47.164 15.042C46.4173 15.042 45.862 14.8553 45.498 14.482C45.134 14.1087 44.952 13.6093 44.952 12.984V5.34H47.08Z" fill="#515070"/>
<path d="M52.8684 6.236C53.4751 5.51733 54.5531 5.158 56.1024 5.158C57.6518 5.158 58.7298 5.51733 59.3364 6.236C59.9431 6.94533 60.2464 8.25667 60.2464 10.17C60.2464 12.0833 59.9431 13.3993 59.3364 14.118C58.7298 14.8273 57.6518 15.182 56.1024 15.182C54.5531 15.182 53.4751 14.8273 52.8684 14.118C52.2711 13.3993 51.9724 12.0833 51.9724 10.17C51.9724 8.25667 52.2711 6.94533 52.8684 6.236ZM57.5864 7.566C57.3251 7.10867 56.8304 6.88 56.1024 6.88C55.3744 6.88 54.8751 7.10867 54.6044 7.566C54.3431 8.02333 54.2125 8.89133 54.2125 10.17C54.2125 11.4487 54.3431 12.3167 54.6044 12.774C54.8751 13.2313 55.3744 13.46 56.1024 13.46C56.8304 13.46 57.3251 13.2313 57.5864 12.774C57.8571 12.3167 57.9924 11.4487 57.9924 10.17C57.9924 8.89133 57.8571 8.02333 57.5864 7.566Z" fill="#515070"/>
<path d="M69.4808 15H67.2268L66.4988 12.046C66.4054 11.738 66.2794 11.528 66.1208 11.416C65.9714 11.2947 65.7521 11.234 65.4628 11.234L63.9648 11.22V15H61.8648V5.34C62.7328 5.256 63.9601 5.214 65.5468 5.214C66.8441 5.214 67.7634 5.41933 68.3048 5.83C68.8461 6.24067 69.1168 6.98733 69.1168 8.07C69.1168 8.77933 68.9721 9.33467 68.6828 9.736C68.4028 10.1373 67.9314 10.38 67.2688 10.464V10.534C68.0061 10.702 68.4634 11.1873 68.6408 11.99L69.4808 15ZM63.9648 9.582H65.5048C66.0648 9.582 66.4474 9.48867 66.6528 9.302C66.8581 9.106 66.9608 8.742 66.9608 8.21C66.9608 7.678 66.8581 7.31867 66.6528 7.132C66.4568 6.94533 66.0741 6.852 65.5048 6.852L63.9648 6.866V9.582Z" fill="#515070"/>
<path d="M77.2869 13.334L77.3849 14.902C76.5075 14.9953 75.0142 15.042 72.9049 15.042C72.2609 15.042 71.7475 14.8693 71.3649 14.524C70.9822 14.1693 70.7862 13.6933 70.7769 13.096V7.244C70.7862 6.64667 70.9822 6.17533 71.3649 5.83C71.7475 5.47533 72.2609 5.298 72.9049 5.298C75.0142 5.298 76.5075 5.34467 77.3849 5.438L77.2869 7.02H73.5769C73.3435 7.02 73.1755 7.076 73.0729 7.188C72.9702 7.3 72.9189 7.482 72.9189 7.734V9.204H76.7689V10.744H72.9189V12.606C72.9189 12.8673 72.9702 13.054 73.0729 13.166C73.1755 13.278 73.3435 13.334 73.5769 13.334H77.2869Z" fill="#515070"/>
<path d="M86.6833 5.34H88.7413C89.2546 5.34 89.5206 5.606 89.5393 6.138L89.9173 15H87.9013L87.5793 7.006H87.3413L85.8853 12.984C85.7919 13.4413 85.5026 13.67 85.0173 13.67H83.6173C83.1319 13.67 82.8426 13.4413 82.7493 12.984L81.2793 7.006H81.0413L80.7613 15H78.7453L79.0953 6.138C79.1233 5.606 79.3893 5.34 79.8933 5.34H81.9513C82.4086 5.34 82.6886 5.56867 82.7913 6.026L83.9673 10.842C84.0419 11.15 84.1259 11.6027 84.2193 12.2H84.4013C84.4106 12.1533 84.4433 11.962 84.4993 11.626C84.5646 11.29 84.6159 11.0287 84.6533 10.842L85.8153 6.026C85.9273 5.56867 86.2166 5.34 86.6833 5.34Z" fill="#515070"/>
<path d="M47.108 31H44.98V21.34H47.108V31Z" fill="#515070"/>
<path d="M49.0679 31V21.34C49.9359 21.256 51.1586 21.214 52.7359 21.214C54.0892 21.214 55.0132 21.4333 55.5079 21.872C56.0119 22.3107 56.2639 23.1413 56.2639 24.364C56.2639 25.5867 56.0259 26.422 55.5499 26.87C55.0832 27.3087 54.2386 27.528 53.0159 27.528C52.3999 27.528 51.7932 27.4907 51.1959 27.416V31H49.0679ZM51.1959 25.89H52.6939C53.2446 25.8807 53.6179 25.7733 53.8139 25.568C54.0192 25.3627 54.1219 24.9613 54.1219 24.364C54.1219 23.7667 54.0192 23.3653 53.8139 23.16C53.6179 22.9547 53.2446 22.852 52.6939 22.852L51.1959 22.866V25.89Z" fill="#515070"/>
<path d="M61.2375 27.346L59.2915 26.66C58.5728 26.3987 58.0595 26.044 57.7515 25.596C57.4435 25.148 57.2895 24.56 57.2895 23.832C57.2895 22.768 57.5462 22.0587 58.0595 21.704C58.5822 21.34 59.4968 21.158 60.8035 21.158C62.0355 21.158 63.0948 21.284 63.9815 21.536L63.8415 22.992C63.0295 22.964 62.0215 22.95 60.8175 22.95C60.2575 22.95 59.8842 23.0013 59.6975 23.104C59.5108 23.1973 59.4175 23.44 59.4175 23.832C59.4175 24.1493 59.4875 24.378 59.6275 24.518C59.7675 24.658 60.0335 24.7933 60.4255 24.924L62.2595 25.554C63.0062 25.8153 63.5335 26.1747 63.8415 26.632C64.1495 27.08 64.3035 27.668 64.3035 28.396C64.3035 29.4787 64.0422 30.216 63.5195 30.608C62.9968 30.9907 62.0635 31.182 60.7195 31.182C59.6275 31.182 58.5215 31.0607 57.4015 30.818L57.5275 29.278C59.5155 29.3247 60.5795 29.348 60.7195 29.348C61.2888 29.348 61.6668 29.2873 61.8535 29.166C62.0495 29.0447 62.1475 28.7927 62.1475 28.41C62.1475 28.0833 62.0822 27.8547 61.9515 27.724C61.8208 27.584 61.5828 27.458 61.2375 27.346Z" fill="#515070"/>
<path d="M73.4739 21.34V27.15C73.4739 28.6247 73.1893 29.6653 72.6199 30.272C72.0599 30.8787 71.0893 31.182 69.7079 31.182C68.2519 31.182 67.2253 30.8787 66.6279 30.272C66.0399 29.6653 65.7459 28.6247 65.7459 27.15V21.34H67.8739V27.15C67.8739 28.0367 67.9953 28.6433 68.2379 28.97C68.4899 29.2967 68.9473 29.46 69.6099 29.46C70.2633 29.46 70.7113 29.2967 70.9539 28.97C71.2059 28.6433 71.3319 28.0367 71.3319 27.15V21.34H73.4739Z" fill="#515070"/>
<path d="M83.1012 21.34H85.1592C85.6726 21.34 85.9386 21.606 85.9572 22.138L86.3352 31H84.3192L83.9972 23.006H83.7592L82.3032 28.984C82.2099 29.4413 81.9206 29.67 81.4352 29.67H80.0352C79.5499 29.67 79.2606 29.4413 79.1672 28.984L77.6972 23.006H77.4592L77.1792 31H75.1632L75.5132 22.138C75.5412 21.606 75.8072 21.34 76.3112 21.34H78.3692C78.8266 21.34 79.1066 21.5687 79.2092 22.026L80.3852 26.842C80.4599 27.15 80.5439 27.6027 80.6372 28.2H80.8192C80.8286 28.1533 80.8612 27.962 80.9172 27.626C80.9826 27.29 81.0339 27.0287 81.0712 26.842L82.2332 22.026C82.3452 21.5687 82.6346 21.34 83.1012 21.34Z" fill="#515070"/>
</svg>
