<svg width="82" height="34" viewBox="0 0 82 34" fill="none" xmlns="http://www.w3.org/2000/svg">
<g clip-path="url(#clip0_28654_1123)">
<path d="M30.7778 21.4577C29.506 21.137 28.4332 20.0048 28.1735 18.7086C28.0685 18.1854 28.0811 17.3958 28.2022 16.9057C28.364 16.2497 28.6204 15.7746 29.0933 15.2529C29.8542 14.4141 30.8904 14.0181 32.1185 14.0974C33.1047 14.1608 33.8602 14.4818 34.4662 15.0945L34.7707 15.4022L34.347 15.8124C34.1451 16.0091 33.9401 16.2025 33.7323 16.3925L33.5409 16.5622L33.3042 16.3302C32.9456 15.9785 32.5654 15.8059 32.0669 15.7686C30.8041 15.6743 29.9677 16.5022 29.9753 17.8383C29.9821 18.9699 30.5171 19.6946 31.4827 19.8806C32.1819 20.0151 32.7592 19.845 33.2867 19.3489L33.5511 19.1007L34.7811 20.2701L34.4309 20.5965C34.0021 20.996 33.4374 21.3167 32.9112 21.4591C32.4208 21.5919 31.3073 21.5911 30.7778 21.4577ZM54.159 21.5208C53.4325 21.4196 52.1391 20.9545 52.1391 20.7944C52.1391 20.7662 52.2747 20.439 52.4406 20.0671L52.7423 19.391L53.0009 19.528C53.6356 19.8646 54.1612 19.9872 54.9788 19.9886C55.6741 19.9903 55.7865 19.9735 55.9551 19.8428C56.1054 19.7262 56.1456 19.6395 56.1456 19.4299C56.1456 19.0475 55.9742 18.9488 54.7639 18.6344C54.1891 18.4848 53.5347 18.2662 53.3101 18.1482C52.5611 17.7547 52.2304 17.1667 52.2883 16.3308C52.39 14.8602 53.6375 14.0448 55.6025 14.1636C56.5931 14.2239 57.7334 14.5836 57.7238 14.8329C57.717 15.0155 57.2157 16.1394 57.149 16.1221C57.1157 16.1135 56.8156 16.0055 56.4824 15.8821C55.4374 15.4954 54.4015 15.589 54.2197 16.0868C54.1355 16.3165 54.2197 16.5397 54.4515 16.6973C54.5414 16.7587 55.0495 16.9196 55.5809 17.0552C56.7562 17.3552 57.2898 17.6071 57.65 18.033C58.4389 18.9653 58.0447 20.5138 56.8579 21.1435C56.7092 21.2223 56.4124 21.3349 56.1984 21.3935C55.7979 21.5029 54.5775 21.5791 54.1593 21.5208H54.159ZM62.206 21.4338C60.9612 21.0563 60.0226 20.0884 59.7167 18.8667C59.5833 18.3341 59.585 17.3944 59.72 16.8485C60.156 15.09 61.741 13.9754 63.6328 14.0974C64.637 14.1622 65.3903 14.4926 65.9769 15.1252L66.2461 15.4158L65.0522 16.583L64.7767 16.3074C64.0682 15.5995 62.8242 15.5682 62.0903 16.2401C61.6593 16.6347 61.4759 17.105 61.4753 17.8189C61.4737 18.7259 61.8219 19.381 62.4839 19.7176C62.801 19.8791 62.9492 19.9104 63.3766 19.9076C63.9785 19.9033 64.3751 19.7495 64.7911 19.3583L65.0642 19.1018L65.6379 19.6511C65.9534 19.9534 66.2117 20.2374 66.2119 20.2826C66.213 20.406 65.6223 20.907 65.2022 21.1396C64.9986 21.2522 64.6457 21.3946 64.4183 21.4554C63.8574 21.6061 62.7368 21.5948 62.2057 21.4338H62.206ZM40.3612 20.5129L39.7281 19.5351H38.6711V21.4264H36.7182V14.2816H38.6588C40.2475 14.2816 40.6659 14.3021 40.9652 14.3945C41.8276 14.6606 42.3904 15.1204 42.7006 15.8122C42.8548 16.1562 42.8783 16.2995 42.8788 16.9082C42.8799 17.4951 42.8542 17.6679 42.7214 17.9733C42.5722 18.3162 42.0867 18.8655 41.7081 19.1191L41.5469 19.2272L42.2179 20.2744C42.5869 20.8501 42.9114 21.3605 42.9387 21.4088C42.9778 21.4773 42.7717 21.4958 41.9916 21.4935L40.9942 21.4907L40.3612 20.5129ZM40.4478 17.8218C40.9469 17.5687 41.0918 16.8295 40.7553 16.254C40.5536 15.9091 40.2778 15.8227 39.3804 15.8227H38.6036V18.0091L39.3949 17.9816C39.9946 17.9611 40.2496 17.9224 40.4478 17.8218ZM79.4142 20.5155L78.7784 19.5351H77.7266V21.4264H75.7739V14.2816H77.7146C79.303 14.2816 79.7214 14.3021 80.021 14.3945C80.8642 14.6549 81.4492 15.1349 81.7605 15.8227C81.9114 16.1565 81.9349 16.3012 81.9352 16.9082C81.9352 17.5318 81.9149 17.652 81.7493 18.0029C81.5757 18.3708 81.1365 18.8681 80.7639 19.1189L80.6027 19.2275L81.2734 20.2744C81.6424 20.8501 81.9669 21.3605 81.9945 21.4088C82.0336 21.4773 81.8266 21.4964 81.0471 21.4961H80.05L79.4142 20.5155ZM79.4705 17.8189C79.836 17.5952 79.9778 17.3441 79.9778 16.9213C79.9778 16.4647 79.7974 16.1144 79.4752 15.9455C79.2926 15.8494 79.0698 15.823 78.4507 15.8227H77.6594V18.0091L78.4507 17.9841C79.0914 17.9639 79.2855 17.9324 79.4702 17.8192L79.4705 17.8189ZM6.22812 20.7796L6.21445 20.0981L3.08287 20.0577L4.65071 20.0415C5.9034 20.0287 6.22511 20.0443 6.25272 20.1183C6.27185 20.1694 6.27704 20.4927 6.26447 20.8365L6.24178 21.4614L6.22812 20.7796ZM45.0004 17.8539V14.2816H50.3203V15.8227H46.8135L46.8329 16.4357L46.8523 17.0487L49.9163 17.0862V18.5519L46.8523 18.5897V19.9204L50.4548 19.9579V21.4264H45.0004V17.8539ZM68.1649 17.8539V14.2816H73.552V15.8227H70.0504V17.0837H73.0805V18.5545H70.0504V19.9553H73.6193V21.4264H68.1649V17.8539ZM2.20137 19.6577L2.0729 19.5001L2.2246 19.6338C2.36674 19.7589 2.40664 19.8152 2.35307 19.8152C2.34022 19.8152 2.27189 19.7441 2.20137 19.6577ZM1.708 18.3034C1.71128 18.2218 1.72714 18.2053 1.74873 18.261C1.76814 18.3117 1.76568 18.3719 1.74326 18.3953C1.72112 18.4186 1.705 18.3773 1.708 18.3034ZM1.708 16.9728C1.71128 16.8909 1.72714 16.8744 1.74873 16.9301C1.76814 16.9807 1.76568 17.041 1.74326 17.0646C1.72112 17.0876 1.705 17.0464 1.708 16.9725V16.9728ZM6.23905 14.1068C6.23905 13.7212 6.25053 13.5725 6.2642 13.7761C6.27786 13.9797 6.27786 14.295 6.26392 14.4767C6.25026 14.6584 6.23905 14.4917 6.23932 14.1065L6.23905 14.1068ZM2.70048 13.4631C2.74913 13.4429 2.80708 13.4451 2.82949 13.4687C2.8519 13.4918 2.81227 13.5085 2.7412 13.5054C2.66276 13.502 2.6469 13.4855 2.70048 13.4628V13.4631ZM6.93851 13.4591C7.17002 13.4454 7.54886 13.4454 7.78038 13.4591C8.01189 13.4727 7.82247 13.4838 7.35944 13.4838C6.89642 13.4838 6.707 13.4724 6.93851 13.4591ZM11.9216 13.4591C12.247 13.4458 12.5727 13.4458 12.898 13.4591C13.1667 13.4721 12.9469 13.483 12.4098 13.483C11.8727 13.483 11.6532 13.4721 11.9216 13.4588V13.4591ZM17.1095 13.4591C17.3786 13.4453 17.6481 13.4453 17.9172 13.4591C18.1288 13.4733 17.9383 13.4844 17.4938 13.4841C17.0494 13.4841 16.8761 13.4727 17.1092 13.4588L17.1095 13.4591ZM19.5673 13.4591C19.8188 13.4454 20.2127 13.4454 20.4428 13.4591C20.6724 13.4727 20.4669 13.4838 19.9853 13.4835C19.5039 13.4835 19.3156 13.4721 19.5671 13.4588L19.5673 13.4591Z" fill="#A4A8AB"/>
<path d="M24.0588 16.8035V8.25781H25.0018V25.3492H24.0588V16.8035Z" fill="#26A8E0"/>
<path d="M2.51054 21.3471C1.97098 21.2549 1.24965 20.8745 0.874093 20.4838C0.499626 20.0943 0.262373 19.642 0.108759 19.0264C-0.037474 18.4378 -0.0361073 16.8223 0.112039 16.103C0.380726 14.7965 1.10424 13.958 2.27493 13.5963C2.52175 13.5199 3.09192 13.4837 4.41294 13.4599L6.21421 13.4277V14.7572L4.68217 14.7885C3.46092 14.8141 3.08919 14.8442 2.84811 14.9392C2.05325 15.2514 1.70557 16.0765 1.70366 17.6542C1.70229 18.6153 1.85645 19.2536 2.18336 19.6408C2.51874 20.0383 2.82897 20.0957 4.64391 20.0957H6.21421V21.4264L4.54769 21.4184C3.63093 21.4139 2.71445 21.3817 2.51054 21.3471ZM7.85913 17.6616C7.20422 15.5909 6.64416 13.8099 6.61437 13.7041L6.55997 13.5116L8.20052 13.513L8.96121 16.1914C9.25039 17.2083 9.53876 18.2254 9.82631 19.2428C9.88371 19.4478 9.94603 19.5993 9.96489 19.5797C9.98402 19.5598 10.3238 18.1945 10.7201 16.5451L11.4412 13.5463L12.3883 13.527C13.2476 13.5093 13.3386 13.519 13.3687 13.6322C13.867 15.4917 14.9967 19.5149 15.0319 19.5547C15.0582 19.5848 15.4439 18.2451 15.8886 16.5778L16.6976 13.5463L17.4881 13.5264C18.1414 13.5102 18.2748 13.5241 18.2562 13.606C18.2442 13.6603 17.7341 15.4428 17.1229 17.5672L16.0118 21.4298L14.0723 21.392L13.261 18.4327C12.8147 16.805 12.4293 15.4971 12.4047 15.5258C12.3801 15.5545 12.0504 16.8942 11.6721 18.5027L10.9841 21.4272H9.05004L7.85913 17.6616ZM19.2107 17.4691V13.5113H20.8269V21.427H19.2107V17.4691Z" fill="#30343E"/>
</g>
<defs>
<clipPath id="clip0_28654_1123">
<rect width="82" height="17.0914" fill="white" transform="translate(0 8.25781)"/>
</clipPath>
</defs>
</svg>
