<svg width="18" height="18" viewBox="0 0 18 18" fill="none" xmlns="http://www.w3.org/2000/svg">
<path d="M10.3924 16.4863V13.5381C10.3924 13.1381 10.7166 12.8141 11.1164 12.8141C12.5429 12.8141 13.319 11.3511 13.4267 8.46306H11.1164C10.7167 8.46306 10.3924 8.1386 10.3924 7.73904V1.51383C10.3924 1.11396 10.7166 0.789964 11.1164 0.789964H17.2759C17.6756 0.789964 18 1.11432 18 1.51383V7.73909C18 9.1234 17.8603 10.3937 17.5859 11.5157C17.3041 12.6658 16.8715 13.6713 16.3003 14.5045C15.713 15.3608 14.9776 16.0327 14.116 16.5007C13.2478 16.9716 12.2386 17.2106 11.1161 17.2106C10.7167 17.2103 10.3924 16.886 10.3924 16.4863ZM1.05468 12.8139C0.65496 12.8139 0.330811 13.1381 0.330811 13.5376V16.4864C0.330811 16.886 0.65496 17.2101 1.05468 17.2101C2.17665 17.2101 3.18635 16.971 4.05398 16.5001C4.91608 16.0322 5.65134 15.3609 6.23865 14.504C6.81011 13.6707 7.24268 12.6652 7.52451 11.5145C7.79901 10.3926 7.93846 9.12219 7.93846 7.73848V1.51323C7.93846 1.11335 7.614 0.789356 7.21444 0.789356H1.05468C0.65496 0.789356 0.330811 1.11366 0.330811 1.51323V7.73848C0.330811 8.1383 0.65496 8.4625 1.05468 8.4625H3.33254C3.22614 11.3508 2.46127 12.8139 1.05468 12.8139Z" fill="white"/>
</svg>
